<svg width="253" height="39" viewBox="0 0 253 39" fill="none" xmlns="http://www.w3.org/2000/svg">
<path d="M11.872 31.224C10.752 31.224 9.81867 30.9813 9.072 30.496C8.32533 30.0107 7.728 29.3107 7.28 28.396V31H1.4V12.548L7.336 11.68V19.856C7.784 18.792 8.41867 18.0173 9.24 17.532C10.08 17.028 10.9573 16.776 11.872 16.776C13.1787 16.776 14.3453 17.084 15.372 17.7C16.4173 18.2973 17.2387 19.128 17.836 20.192C18.452 21.256 18.76 22.4973 18.76 23.916C18.76 25.3347 18.452 26.5947 17.836 27.696C17.2387 28.7973 16.4173 29.6653 15.372 30.3C14.3453 30.916 13.1787 31.224 11.872 31.224ZM10.052 26.8C10.8547 26.8 11.5267 26.5293 12.068 25.988C12.6093 25.4467 12.88 24.784 12.88 24C12.88 23.216 12.6093 22.5533 12.068 22.012C11.5267 21.4707 10.8547 21.2 10.052 21.2C9.28667 21.2 8.63333 21.4613 8.092 21.984C7.55067 22.488 7.28 23.1413 7.28 23.944C7.28 24.7467 7.55067 25.428 8.092 25.988C8.63333 26.5293 9.28667 26.8 10.052 26.8ZM29.5768 27.304C30.1181 27.304 30.6874 27.248 31.2848 27.136C31.9008 27.024 32.5261 26.8187 33.1608 26.52L33.8328 30.132C33.1421 30.4867 32.3861 30.7573 31.5648 30.944C30.7621 31.1307 29.8381 31.224 28.7928 31.224C26.9074 31.224 25.3208 30.916 24.0328 30.3C22.7634 29.684 21.8021 28.8347 21.1488 27.752C20.4954 26.6693 20.1688 25.4187 20.1688 24C20.1688 22.544 20.5141 21.2747 21.2048 20.192C21.9141 19.1093 22.8568 18.2693 24.0328 17.672C25.2088 17.0747 26.5061 16.776 27.9248 16.776C30.0341 16.776 31.6488 17.4387 32.7688 18.764C33.8888 20.0707 34.4488 21.9373 34.4488 24.364L26.1048 25.428C26.7208 26.6787 27.8781 27.304 29.5768 27.304ZM25.6568 22.852L30.0528 21.928C29.9781 21.3307 29.7728 20.892 29.4368 20.612C29.1008 20.3133 28.6808 20.164 28.1768 20.164C27.4301 20.164 26.8328 20.4253 26.3848 20.948C25.9554 21.452 25.7128 22.0867 25.6568 22.852ZM36.4 31V16.972H42.224V20.024C42.6533 18.9787 43.288 18.176 44.128 17.616C44.9867 17.056 46.004 16.776 47.18 16.776C49.0093 16.776 50.428 17.4107 51.436 18.68C52.444 19.9307 52.948 21.704 52.948 24V31H47.04V23.692C47.04 22.0307 46.368 21.2 45.024 21.2C44.2213 21.2 43.568 21.4987 43.064 22.096C42.56 22.6747 42.308 23.4587 42.308 24.448V31H36.4ZM64.3033 27.304C64.8446 27.304 65.414 27.248 66.0113 27.136C66.6273 27.024 67.2526 26.8187 67.8873 26.52L68.5593 30.132C67.8686 30.4867 67.1126 30.7573 66.2913 30.944C65.4886 31.1307 64.5646 31.224 63.5193 31.224C61.634 31.224 60.0473 30.916 58.7593 30.3C57.49 29.684 56.5286 28.8347 55.8753 27.752C55.222 26.6693 54.8953 25.4187 54.8953 24C54.8953 22.544 55.2406 21.2747 55.9313 20.192C56.6406 19.1093 57.5833 18.2693 58.7593 17.672C59.9353 17.0747 61.2326 16.776 62.6513 16.776C64.7606 16.776 66.3753 17.4387 67.4953 18.764C68.6153 20.0707 69.1753 21.9373 69.1753 24.364L60.8313 25.428C61.4473 26.6787 62.6046 27.304 64.3033 27.304ZM60.3833 22.852L64.7793 21.928C64.7046 21.3307 64.4993 20.892 64.1633 20.612C63.8273 20.3133 63.4073 20.164 62.9033 20.164C62.1566 20.164 61.5593 20.4253 61.1113 20.948C60.682 21.452 60.4393 22.0867 60.3833 22.852ZM77.3146 31.224C76.0266 31.224 74.8599 30.916 73.8146 30.3C72.7692 29.6653 71.9386 28.7973 71.3226 27.696C70.7252 26.5947 70.4266 25.3347 70.4266 23.916C70.4266 22.4973 70.7252 21.256 71.3226 20.192C71.9386 19.128 72.7692 18.2973 73.8146 17.7C74.8599 17.084 76.0266 16.776 77.3146 16.776C78.2292 16.776 79.1066 17.028 79.9466 17.532C80.8052 18.0173 81.4399 18.8107 81.8506 19.912V12.548L87.7586 11.68V31H81.9066V28.396C81.4586 29.3107 80.8612 30.0107 80.1146 30.496C79.3679 30.9813 78.4346 31.224 77.3146 31.224ZM79.1346 26.8C79.8999 26.8 80.5532 26.5293 81.0946 25.988C81.6359 25.428 81.9066 24.7467 81.9066 23.944C81.9066 23.1413 81.6359 22.488 81.0946 21.984C80.5532 21.4613 79.8999 21.2 79.1346 21.2C78.3319 21.2 77.6599 21.4707 77.1186 22.012C76.5772 22.5533 76.3066 23.216 76.3066 24C76.3066 24.784 76.5772 25.4467 77.1186 25.988C77.6599 26.5293 78.3319 26.8 79.1346 26.8ZM99.276 27.304C99.8173 27.304 100.387 27.248 100.984 27.136C101.6 27.024 102.225 26.8187 102.86 26.52L103.532 30.132C102.841 30.4867 102.085 30.7573 101.264 30.944C100.461 31.1307 99.5373 31.224 98.492 31.224C96.6066 31.224 95.02 30.916 93.732 30.3C92.4626 29.684 91.5013 28.8347 90.848 27.752C90.1946 26.6693 89.868 25.4187 89.868 24C89.868 22.544 90.2133 21.2747 90.904 20.192C91.6133 19.1093 92.556 18.2693 93.732 17.672C94.908 17.0747 96.2053 16.776 97.624 16.776C99.7333 16.776 101.348 17.4387 102.468 18.764C103.588 20.0707 104.148 21.9373 104.148 24.364L95.804 25.428C96.42 26.6787 97.5773 27.304 99.276 27.304ZM95.356 22.852L99.752 21.928C99.6773 21.3307 99.472 20.892 99.136 20.612C98.8 20.3133 98.38 20.164 97.876 20.164C97.1293 20.164 96.532 20.4253 96.084 20.948C95.6546 21.452 95.412 22.0867 95.356 22.852ZM112.091 31.224C110.766 31.224 109.683 31 108.843 30.552C108.022 30.104 107.425 29.4973 107.051 28.732C106.678 27.9667 106.491 27.108 106.491 26.156V20.444H104.699V16.972H106.911L109.515 12.548H112.399V16.972H115.647V20.444H112.399V25.344C112.399 25.7733 112.539 26.1093 112.819 26.352C113.099 26.576 113.463 26.688 113.911 26.688C114.359 26.688 114.807 26.576 115.255 26.352L115.675 30.244C115.227 30.5613 114.658 30.804 113.967 30.972C113.277 31.14 112.651 31.224 112.091 31.224ZM123.685 31.224C122.36 31.224 121.277 31 120.437 30.552C119.616 30.104 119.018 29.4973 118.645 28.732C118.272 27.9667 118.085 27.108 118.085 26.156V20.444H116.293V16.972H118.505L121.109 12.548H123.993V16.972H127.241V20.444H123.993V25.344C123.993 25.7733 124.133 26.1093 124.413 26.352C124.693 26.576 125.057 26.688 125.505 26.688C125.953 26.688 126.401 26.576 126.849 26.352L127.269 30.244C126.821 30.5613 126.252 30.804 125.561 30.972C124.87 31.14 124.245 31.224 123.685 31.224ZM135.201 31.224C133.913 31.224 132.747 30.916 131.701 30.3C130.656 29.6653 129.825 28.7973 129.209 27.696C128.612 26.5947 128.313 25.3347 128.313 23.916C128.313 22.4973 128.612 21.256 129.209 20.192C129.825 19.128 130.656 18.2973 131.701 17.7C132.747 17.084 133.913 16.776 135.201 16.776C136.116 16.776 137.003 17.028 137.861 17.532C138.72 18.036 139.383 18.8667 139.849 20.024V16.972H145.673V31H139.793V28.396C139.345 29.3107 138.748 30.0107 138.001 30.496C137.255 30.9813 136.321 31.224 135.201 31.224ZM137.021 26.8C137.787 26.8 138.44 26.5293 138.981 25.988C139.523 25.428 139.793 24.7467 139.793 23.944C139.793 23.1413 139.523 22.488 138.981 21.984C138.44 21.4613 137.787 21.2 137.021 21.2C136.219 21.2 135.547 21.4707 135.005 22.012C134.464 22.5533 134.193 23.216 134.193 24C134.193 24.784 134.464 25.4467 135.005 25.988C135.547 26.5293 136.219 26.8 137.021 26.8Z" fill="white"/>
<path d="M152.004 31.168C150.977 31.168 150.193 30.8973 149.652 30.356C149.111 29.796 148.84 29.1147 148.84 28.312C148.84 27.4907 149.129 26.8187 149.708 26.296C150.287 25.7547 151.052 25.484 152.004 25.484C152.956 25.484 153.712 25.764 154.272 26.324C154.851 26.884 155.14 27.5467 155.14 28.312C155.14 29.1707 154.869 29.8613 154.328 30.384C153.805 30.9067 153.031 31.168 152.004 31.168ZM164.027 31.224C162.459 31.224 161.106 30.916 159.967 30.3C158.828 29.684 157.951 28.844 157.335 27.78C156.719 26.6973 156.411 25.456 156.411 24.056C156.411 22.6747 156.728 21.4333 157.363 20.332C157.998 19.2307 158.884 18.3627 160.023 17.728C161.18 17.0933 162.515 16.776 164.027 16.776C165.838 16.776 167.266 17.1493 168.311 17.896L167.695 21.704C167.228 21.4987 166.79 21.3587 166.379 21.284C165.968 21.1907 165.576 21.144 165.203 21.144C164.288 21.144 163.56 21.4053 163.019 21.928C162.496 22.432 162.235 23.1227 162.235 24C162.235 24.8587 162.496 25.5587 163.019 26.1C163.542 26.6227 164.232 26.884 165.091 26.884C165.838 26.884 166.715 26.7253 167.723 26.408L168.255 30.328C167.639 30.6267 166.995 30.8507 166.323 31C165.67 31.1493 164.904 31.224 164.027 31.224ZM175.58 31.224C174.329 31.224 173.312 31 172.528 30.552C171.763 30.104 171.203 29.4973 170.848 28.732C170.493 27.9667 170.316 27.108 170.316 26.156V16.972H176.224V25.344C176.224 25.7733 176.345 26.1093 176.588 26.352C176.849 26.576 177.157 26.688 177.512 26.688C177.885 26.688 178.268 26.576 178.66 26.352L178.968 30.244C178.557 30.5613 178.025 30.804 177.372 30.972C176.719 31.14 176.121 31.224 175.58 31.224ZM173.284 15.432C172.425 15.432 171.688 15.1613 171.072 14.62C170.456 14.06 170.148 13.3787 170.148 12.576C170.148 12.016 170.297 11.5307 170.596 11.12C170.895 10.6907 171.287 10.3547 171.772 10.112C172.257 9.86933 172.761 9.748 173.284 9.748C173.863 9.748 174.385 9.87866 174.852 10.14C175.337 10.4013 175.72 10.7467 176 11.176C176.299 11.6053 176.448 12.072 176.448 12.576C176.448 13.136 176.289 13.6307 175.972 14.06C175.673 14.4893 175.281 14.8253 174.796 15.068C174.329 15.3107 173.825 15.432 173.284 15.432ZM185.924 31.224C184.598 31.224 183.516 31 182.676 30.552C181.854 30.104 181.257 29.4973 180.884 28.732C180.51 27.9667 180.324 27.108 180.324 26.156V11.988L186.232 11.12V25.344C186.232 25.7733 186.372 26.1093 186.652 26.352C186.932 26.576 187.296 26.688 187.744 26.688C188.192 26.688 188.64 26.576 189.088 26.352L189.508 30.244C189.06 30.5613 188.49 30.804 187.8 30.972C187.109 31.14 186.484 31.224 185.924 31.224ZM199.479 27.304C200.02 27.304 200.59 27.248 201.187 27.136C201.803 27.024 202.428 26.8187 203.063 26.52L203.735 30.132C203.044 30.4867 202.288 30.7573 201.467 30.944C200.664 31.1307 199.74 31.224 198.695 31.224C196.81 31.224 195.223 30.916 193.935 30.3C192.666 29.684 191.704 28.8347 191.051 27.752C190.398 26.6693 190.071 25.4187 190.071 24C190.071 22.544 190.416 21.2747 191.107 20.192C191.816 19.1093 192.759 18.2693 193.935 17.672C195.111 17.0747 196.408 16.776 197.827 16.776C199.936 16.776 201.551 17.4387 202.671 18.764C203.791 20.0707 204.351 21.9373 204.351 24.364L196.007 25.428C196.623 26.6787 197.78 27.304 199.479 27.304ZM195.559 22.852L199.955 21.928C199.88 21.3307 199.675 20.892 199.339 20.612C199.003 20.3133 198.583 20.164 198.079 20.164C197.332 20.164 196.735 20.4253 196.287 20.948C195.858 21.452 195.615 22.0867 195.559 22.852ZM206.302 31V16.972H212.126V20.024C212.556 18.9787 213.19 18.176 214.03 17.616C214.889 17.056 215.906 16.776 217.082 16.776C218.912 16.776 220.33 17.4107 221.338 18.68C222.346 19.9307 222.85 21.704 222.85 24V31H216.942V23.692C216.942 22.0307 216.27 21.2 214.926 21.2C214.124 21.2 213.47 21.4987 212.966 22.096C212.462 22.6747 212.21 23.4587 212.21 24.448V31H206.302ZM231.244 31.224C229.918 31.224 228.836 31 227.996 30.552C227.174 30.104 226.577 29.4973 226.204 28.732C225.83 27.9667 225.644 27.108 225.644 26.156V20.444H223.852V16.972H226.064L228.668 12.548H231.552V16.972H234.8V20.444H231.552V25.344C231.552 25.7733 231.692 26.1093 231.972 26.352C232.252 26.576 232.616 26.688 233.064 26.688C233.512 26.688 233.96 26.576 234.408 26.352L234.828 30.244C234.38 30.5613 233.81 30.804 233.12 30.972C232.429 31.14 231.804 31.224 231.244 31.224ZM243.936 31.224C242.349 31.224 240.949 30.916 239.736 30.3C238.523 29.684 237.571 28.8347 236.88 27.752C236.208 26.6507 235.872 25.3907 235.872 23.972C235.872 22.516 236.217 21.256 236.908 20.192C237.617 19.1093 238.579 18.2693 239.792 17.672C241.005 17.0747 242.396 16.776 243.964 16.776C245.569 16.776 246.979 17.084 248.192 17.7C249.405 18.2973 250.348 19.1373 251.02 20.22C251.692 21.284 252.028 22.5347 252.028 23.972C252.028 25.4093 251.683 26.6787 250.992 27.78C250.32 28.8627 249.377 29.712 248.164 30.328C246.951 30.9253 245.541 31.224 243.936 31.224ZM243.992 27.024C244.757 27.024 245.383 26.744 245.868 26.184C246.372 25.6053 246.624 24.868 246.624 23.972C246.624 23.076 246.381 22.348 245.896 21.788C245.411 21.2093 244.795 20.92 244.048 20.92C243.245 20.92 242.592 21.2093 242.088 21.788C241.603 22.348 241.36 23.076 241.36 23.972C241.36 24.868 241.603 25.6053 242.088 26.184C242.592 26.744 243.227 27.024 243.992 27.024Z" fill="white"/>
</svg>
