<svg width="34" height="39" viewBox="0 0 34 39" fill="none" xmlns="http://www.w3.org/2000/svg">
<path d="M11.872 31.224C10.752 31.224 9.81867 30.9813 9.072 30.496C8.32533 30.0107 7.728 29.3107 7.28 28.396V31H1.4V12.548L7.336 11.68V19.856C7.784 18.792 8.41867 18.0173 9.24 17.532C10.08 17.028 10.9573 16.776 11.872 16.776C13.1787 16.776 14.3453 17.084 15.372 17.7C16.4173 18.2973 17.2387 19.128 17.836 20.192C18.452 21.256 18.76 22.4973 18.76 23.916C18.76 25.3347 18.452 26.5947 17.836 27.696C17.2387 28.7973 16.4173 29.6653 15.372 30.3C14.3453 30.916 13.1787 31.224 11.872 31.224ZM10.052 26.8C10.8547 26.8 11.5267 26.5293 12.068 25.988C12.6093 25.4467 12.88 24.784 12.88 24C12.88 23.216 12.6093 22.5533 12.068 22.012C11.5267 21.4707 10.8547 21.2 10.052 21.2C9.28667 21.2 8.63333 21.4613 8.092 21.984C7.55067 22.488 7.28 23.1413 7.28 23.944C7.28 24.7467 7.55067 25.428 8.092 25.988C8.63333 26.5293 9.28667 26.8 10.052 26.8Z" fill="#044576"/>
<path d="M28.316 31.224C26.748 31.224 25.3947 30.916 24.256 30.3C23.1173 29.684 22.24 28.844 21.624 27.78C21.008 26.6973 20.7 25.456 20.7 24.056C20.7 22.6747 21.0173 21.4333 21.652 20.332C22.2867 19.2307 23.1733 18.3627 24.312 17.728C25.4693 17.0933 26.804 16.776 28.316 16.776C30.1267 16.776 31.5547 17.1493 32.6 17.896L31.984 21.704C31.5173 21.4987 31.0787 21.3587 30.668 21.284C30.2573 21.1907 29.8653 21.144 29.492 21.144C28.5773 21.144 27.8493 21.4053 27.308 21.928C26.7853 22.432 26.524 23.1227 26.524 24C26.524 24.8587 26.7853 25.5587 27.308 26.1C27.8307 26.6227 28.5213 26.884 29.38 26.884C30.1267 26.884 31.004 26.7253 32.012 26.408L32.544 30.328C31.928 30.6267 31.284 30.8507 30.612 31C29.9587 31.1493 29.1933 31.224 28.316 31.224Z" fill="black"/>
</svg>
